<?xml version="1.0" encoding="UTF-8" standalone="no"?>
<!-- Created with Inkscape (http://www.inkscape.org/) -->

<svg
   width="210mm"
   height="297mm"
   viewBox="0 0 210 297"
   version="1.1"
   id="svg5"
   xml:space="preserve"
   inkscape:version="1.2.1 (9c6d41e410, 2022-07-14)"
   sodipodi:docname="drawing-1.svg"
   xmlns:inkscape="http://www.inkscape.org/namespaces/inkscape"
   xmlns:sodipodi="http://sodipodi.sourceforge.net/DTD/sodipodi-0.dtd"
   xmlns="http://www.w3.org/2000/svg"
   xmlns:svg="http://www.w3.org/2000/svg"><sodipodi:namedview
     id="namedview7"
     pagecolor="#505050"
     bordercolor="#eeeeee"
     borderopacity="1"
     inkscape:showpageshadow="0"
     inkscape:pageopacity="0"
     inkscape:pagecheckerboard="0"
     inkscape:deskcolor="#505050"
     inkscape:document-units="mm"
     showgrid="false"
     inkscape:zoom="0.52221046"
     inkscape:cx="293.94279"
     inkscape:cy="585.97064"
     inkscape:window-width="1920"
     inkscape:window-height="1009"
     inkscape:window-x="-8"
     inkscape:window-y="-8"
     inkscape:window-maximized="1"
     inkscape:current-layer="layer1" /><defs
     id="defs2" /><g
     inkscape:label="Layer 1"
     inkscape:groupmode="layer"
     id="layer1"><path
       style="fill:#000000;stroke-width:0.264583"
       d="m 54.505129,235.62945 c -5.71003,-0.99255 -10.49328,-5.54793 -11.94134,-11.37247 -0.53632,-2.15725 -0.53995,-151.278998 -0.004,-153.458323 1.27423,-5.178782 5.06859,-9.213617 10.35757,-11.014014 2.49865,-0.850556 60.866351,-0.757258 65.616661,0.104884 31.87614,5.785241 53.76714,29.195663 56.09581,59.989333 0.49167,6.50173 0.20435,58.3937 -0.34427,62.17708 -4.0971,28.25442 -28.79938,50.52572 -59.41759,53.57026 -3.21958,0.32014 -58.522961,0.32311 -60.363111,0.003 z m 55.297911,-31.88867 c 19.82682,-3.5122 31.14443,-17.38342 31.6764,-38.8236 0.19056,-7.68006 1.57869,-6.80603 -10.80922,-6.80603 -12.17141,0 -10.72208,-1.00349 -10.89084,7.54063 -0.31761,16.07981 -6.43006,27.87509 -19.03832,36.73847 -1.418831,0.99741 -2.579681,1.87788 -2.579681,1.95658 0,0.29994 9.243821,-0.18129 11.641661,-0.60605 z m 31.2076,-59.58862 c 0.77554,-0.628 0.7151,-25.19886 -0.0701,-28.50663 -8.39758,-35.375251 -57.509761,-36.542658 -66.785171,-1.5875 -1.02525,3.86378 -1.29748,29.30457 -0.32201,30.09445 0.89112,0.72159 66.286151,0.72127 67.177291,-2.6e-4 z"
       id="path230" /></g></svg>
